<mxfile host="app.diagrams.net" modified="2024-03-02T20:31:50.910Z" agent="Mozilla/5.0 (Windows NT 10.0; Win64; x64) AppleWebKit/537.36 (KHTML, like Gecko) Chrome/122.0.0.0 Safari/537.36" etag="aJll-3lgYjwTV-mivP6R" version="23.1.8" type="github">
  <diagram name="Página-1" id="PHuElCLsCubrlGrufjiO">
    <mxGraphModel dx="1272" dy="869" grid="1" gridSize="10" guides="1" tooltips="1" connect="1" arrows="1" fold="1" page="1" pageScale="1" pageWidth="827" pageHeight="1169" math="0" shadow="0">
      <root>
        <mxCell id="0" />
        <mxCell id="1" parent="0" />
        <mxCell id="7weu3szG185yvTid6uPm-115" value="" style="rounded=0;whiteSpace=wrap;html=1;" parent="1" vertex="1">
          <mxGeometry x="482.19" y="735" width="105.63" height="50" as="geometry" />
        </mxCell>
        <mxCell id="7weu3szG185yvTid6uPm-70" value="" style="rhombus;whiteSpace=wrap;html=1;" parent="1" vertex="1">
          <mxGeometry x="332.5" y="730" width="100" height="60" as="geometry" />
        </mxCell>
        <mxCell id="7weu3szG185yvTid6uPm-27" value="&lt;font style=&quot;font-size: 12px;&quot;&gt;fornece&lt;/font&gt;" style="rhombus;whiteSpace=wrap;html=1;" parent="1" vertex="1">
          <mxGeometry x="340" y="735" width="85" height="50" as="geometry" />
        </mxCell>
        <mxCell id="7weu3szG185yvTid6uPm-1" value="&lt;font style=&quot;font-size: 12px;&quot;&gt;Prescrição&lt;/font&gt;" style="rounded=0;whiteSpace=wrap;html=1;" parent="1" vertex="1">
          <mxGeometry x="490" y="390" width="90" height="40" as="geometry" />
        </mxCell>
        <mxCell id="7weu3szG185yvTid6uPm-2" value="&lt;font style=&quot;font-size: 12px;&quot;&gt;emite&lt;/font&gt;" style="rhombus;whiteSpace=wrap;html=1;" parent="1" vertex="1">
          <mxGeometry x="320" y="390" width="80" height="40" as="geometry" />
        </mxCell>
        <mxCell id="7weu3szG185yvTid6uPm-3" value="&lt;font style=&quot;font-size: 12px;&quot;&gt;Médico&lt;/font&gt;" style="rounded=0;whiteSpace=wrap;html=1;" parent="1" vertex="1">
          <mxGeometry x="130" y="390" width="90" height="40" as="geometry" />
        </mxCell>
        <mxCell id="7weu3szG185yvTid6uPm-4" value="" style="endArrow=none;html=1;rounded=0;exitX=1;exitY=0.5;exitDx=0;exitDy=0;" parent="1" source="7weu3szG185yvTid6uPm-3" edge="1">
          <mxGeometry width="50" height="50" relative="1" as="geometry">
            <mxPoint x="270" y="460" as="sourcePoint" />
            <mxPoint x="320" y="410" as="targetPoint" />
          </mxGeometry>
        </mxCell>
        <mxCell id="7weu3szG185yvTid6uPm-7" value="1" style="text;html=1;align=center;verticalAlign=middle;whiteSpace=wrap;rounded=0;" parent="1" vertex="1">
          <mxGeometry x="238.44" y="380" width="60" height="30" as="geometry" />
        </mxCell>
        <mxCell id="7weu3szG185yvTid6uPm-10" value="" style="endArrow=none;html=1;rounded=0;exitX=1;exitY=0.5;exitDx=0;exitDy=0;entryX=0;entryY=0.5;entryDx=0;entryDy=0;" parent="1" source="7weu3szG185yvTid6uPm-2" target="7weu3szG185yvTid6uPm-1" edge="1">
          <mxGeometry width="50" height="50" relative="1" as="geometry">
            <mxPoint x="410" y="440" as="sourcePoint" />
            <mxPoint x="460" y="390" as="targetPoint" />
          </mxGeometry>
        </mxCell>
        <mxCell id="7weu3szG185yvTid6uPm-11" value="N" style="text;html=1;align=center;verticalAlign=middle;whiteSpace=wrap;rounded=0;" parent="1" vertex="1">
          <mxGeometry x="530" y="350" width="60" height="30" as="geometry" />
        </mxCell>
        <mxCell id="7weu3szG185yvTid6uPm-13" value="Farmácia" style="rounded=0;whiteSpace=wrap;html=1;" parent="1" vertex="1">
          <mxGeometry x="489.38" y="570" width="91.25" height="40" as="geometry" />
        </mxCell>
        <mxCell id="7weu3szG185yvTid6uPm-14" value="&lt;font style=&quot;font-size: 12px;&quot;&gt;processada&lt;/font&gt;" style="rhombus;whiteSpace=wrap;html=1;" parent="1" vertex="1">
          <mxGeometry x="492.5" y="480" width="85" height="50" as="geometry" />
        </mxCell>
        <mxCell id="7weu3szG185yvTid6uPm-15" value="" style="endArrow=none;html=1;rounded=0;entryX=0.5;entryY=1;entryDx=0;entryDy=0;exitX=0.5;exitY=0;exitDx=0;exitDy=0;" parent="1" edge="1">
          <mxGeometry width="50" height="50" relative="1" as="geometry">
            <mxPoint x="530" y="480" as="sourcePoint" />
            <mxPoint x="530" y="430" as="targetPoint" />
          </mxGeometry>
        </mxCell>
        <mxCell id="7weu3szG185yvTid6uPm-16" value="" style="endArrow=none;html=1;rounded=0;entryX=0.5;entryY=1;entryDx=0;entryDy=0;exitX=0.5;exitY=0;exitDx=0;exitDy=0;" parent="1" source="7weu3szG185yvTid6uPm-13" target="7weu3szG185yvTid6uPm-14" edge="1">
          <mxGeometry width="50" height="50" relative="1" as="geometry">
            <mxPoint x="490" y="600" as="sourcePoint" />
            <mxPoint x="540" y="550" as="targetPoint" />
          </mxGeometry>
        </mxCell>
        <mxCell id="7weu3szG185yvTid6uPm-17" value="1" style="text;html=1;align=center;verticalAlign=middle;whiteSpace=wrap;rounded=0;" parent="1" vertex="1">
          <mxGeometry x="521.25" y="440" width="60" height="30" as="geometry" />
        </mxCell>
        <mxCell id="7weu3szG185yvTid6uPm-18" value="1" style="text;html=1;align=center;verticalAlign=middle;whiteSpace=wrap;rounded=0;" parent="1" vertex="1">
          <mxGeometry x="521.25" y="530" width="60" height="30" as="geometry" />
        </mxCell>
        <mxCell id="7weu3szG185yvTid6uPm-19" value="Fármaco" style="rounded=0;whiteSpace=wrap;html=1;" parent="1" vertex="1">
          <mxGeometry x="489.38" y="740" width="91.25" height="40" as="geometry" />
        </mxCell>
        <mxCell id="7weu3szG185yvTid6uPm-21" value="" style="endArrow=none;html=1;rounded=0;entryX=0.5;entryY=1;entryDx=0;entryDy=0;exitX=0.5;exitY=0;exitDx=0;exitDy=0;" parent="1" source="7weu3szG185yvTid6uPm-22" target="7weu3szG185yvTid6uPm-13" edge="1">
          <mxGeometry width="50" height="50" relative="1" as="geometry">
            <mxPoint x="506.88" y="670" as="sourcePoint" />
            <mxPoint x="556.88" y="620" as="targetPoint" />
          </mxGeometry>
        </mxCell>
        <mxCell id="7weu3szG185yvTid6uPm-22" value="&lt;font style=&quot;font-size: 12px;&quot;&gt;contém&lt;/font&gt;" style="rhombus;whiteSpace=wrap;html=1;" parent="1" vertex="1">
          <mxGeometry x="492.5" y="650" width="85" height="50" as="geometry" />
        </mxCell>
        <mxCell id="7weu3szG185yvTid6uPm-23" value="" style="endArrow=none;html=1;rounded=0;entryX=0.5;entryY=1;entryDx=0;entryDy=0;exitX=0.5;exitY=0;exitDx=0;exitDy=0;" parent="1" source="7weu3szG185yvTid6uPm-19" target="7weu3szG185yvTid6uPm-22" edge="1">
          <mxGeometry width="50" height="50" relative="1" as="geometry">
            <mxPoint x="493.13" y="740" as="sourcePoint" />
            <mxPoint x="530" y="710" as="targetPoint" />
          </mxGeometry>
        </mxCell>
        <mxCell id="7weu3szG185yvTid6uPm-24" value="1" style="text;html=1;align=center;verticalAlign=middle;whiteSpace=wrap;rounded=0;" parent="1" vertex="1">
          <mxGeometry x="520.63" y="620" width="60" height="30" as="geometry" />
        </mxCell>
        <mxCell id="7weu3szG185yvTid6uPm-25" value="N" style="text;html=1;align=center;verticalAlign=middle;whiteSpace=wrap;rounded=0;" parent="1" vertex="1">
          <mxGeometry x="521.25" y="700" width="60" height="30" as="geometry" />
        </mxCell>
        <mxCell id="7weu3szG185yvTid6uPm-26" value="Farmacêutica" style="rounded=0;whiteSpace=wrap;html=1;" parent="1" vertex="1">
          <mxGeometry x="200" y="740" width="91.25" height="40" as="geometry" />
        </mxCell>
        <mxCell id="7weu3szG185yvTid6uPm-31" value="" style="endArrow=none;html=1;rounded=0;" parent="1" edge="1">
          <mxGeometry width="50" height="50" relative="1" as="geometry">
            <mxPoint x="300" y="760" as="sourcePoint" />
            <mxPoint x="330" y="760" as="targetPoint" />
          </mxGeometry>
        </mxCell>
        <mxCell id="7weu3szG185yvTid6uPm-32" value="" style="endArrow=none;html=1;rounded=0;" parent="1" edge="1">
          <mxGeometry width="50" height="50" relative="1" as="geometry">
            <mxPoint x="430" y="760" as="sourcePoint" />
            <mxPoint x="480" y="760" as="targetPoint" />
          </mxGeometry>
        </mxCell>
        <mxCell id="7weu3szG185yvTid6uPm-33" value="1" style="text;html=1;align=center;verticalAlign=middle;whiteSpace=wrap;rounded=0;" parent="1" vertex="1">
          <mxGeometry x="291.25" y="770" width="60" height="30" as="geometry" />
        </mxCell>
        <mxCell id="7weu3szG185yvTid6uPm-34" value="N" style="text;html=1;align=center;verticalAlign=middle;whiteSpace=wrap;rounded=0;" parent="1" vertex="1">
          <mxGeometry x="424" y="770" width="60" height="30" as="geometry" />
        </mxCell>
        <mxCell id="7weu3szG185yvTid6uPm-36" value="" style="endArrow=none;html=1;rounded=0;exitX=1;exitY=0.5;exitDx=0;exitDy=0;" parent="1" source="7weu3szG185yvTid6uPm-1" edge="1">
          <mxGeometry width="50" height="50" relative="1" as="geometry">
            <mxPoint x="600" y="450" as="sourcePoint" />
            <mxPoint x="690" y="410" as="targetPoint" />
          </mxGeometry>
        </mxCell>
        <mxCell id="7weu3szG185yvTid6uPm-37" value="contém" style="rhombus;whiteSpace=wrap;html=1;" parent="1" vertex="1">
          <mxGeometry x="650" y="570" width="80" height="50" as="geometry" />
        </mxCell>
        <mxCell id="7weu3szG185yvTid6uPm-38" value="" style="endArrow=none;html=1;rounded=0;exitX=0.5;exitY=0;exitDx=0;exitDy=0;" parent="1" edge="1">
          <mxGeometry width="50" height="50" relative="1" as="geometry">
            <mxPoint x="690" y="570.0000000000001" as="sourcePoint" />
            <mxPoint x="690" y="410" as="targetPoint" />
          </mxGeometry>
        </mxCell>
        <mxCell id="7weu3szG185yvTid6uPm-39" value="" style="endArrow=none;html=1;rounded=0;" parent="1" edge="1">
          <mxGeometry width="50" height="50" relative="1" as="geometry">
            <mxPoint x="690" y="760" as="sourcePoint" />
            <mxPoint x="689.63" y="620" as="targetPoint" />
          </mxGeometry>
        </mxCell>
        <mxCell id="7weu3szG185yvTid6uPm-40" value="" style="endArrow=none;html=1;rounded=0;" parent="1" edge="1">
          <mxGeometry width="50" height="50" relative="1" as="geometry">
            <mxPoint x="590" y="760" as="sourcePoint" />
            <mxPoint x="690" y="760" as="targetPoint" />
          </mxGeometry>
        </mxCell>
        <mxCell id="7weu3szG185yvTid6uPm-41" value="1" style="text;html=1;align=center;verticalAlign=middle;whiteSpace=wrap;rounded=0;" parent="1" vertex="1">
          <mxGeometry x="590" y="380" width="60" height="30" as="geometry" />
        </mxCell>
        <mxCell id="7weu3szG185yvTid6uPm-43" value="N" style="text;html=1;align=center;verticalAlign=middle;whiteSpace=wrap;rounded=0;" parent="1" vertex="1">
          <mxGeometry x="600" y="760" width="60" height="30" as="geometry" />
        </mxCell>
        <mxCell id="7weu3szG185yvTid6uPm-45" value="" style="endArrow=none;html=1;rounded=0;exitX=1;exitY=0.5;exitDx=0;exitDy=0;" parent="1" edge="1">
          <mxGeometry width="50" height="50" relative="1" as="geometry">
            <mxPoint x="580" y="420" as="sourcePoint" />
            <mxPoint x="680" y="420" as="targetPoint" />
          </mxGeometry>
        </mxCell>
        <mxCell id="7weu3szG185yvTid6uPm-46" value="" style="endArrow=none;html=1;rounded=0;exitX=0.381;exitY=0.114;exitDx=0;exitDy=0;exitPerimeter=0;" parent="1" edge="1" source="7weu3szG185yvTid6uPm-37">
          <mxGeometry width="50" height="50" relative="1" as="geometry">
            <mxPoint x="680" y="570" as="sourcePoint" />
            <mxPoint x="679.63" y="420" as="targetPoint" />
          </mxGeometry>
        </mxCell>
        <mxCell id="7weu3szG185yvTid6uPm-51" value="&lt;font style=&quot;font-size: 12px;&quot;&gt;Paciente&lt;/font&gt;" style="rounded=0;whiteSpace=wrap;html=1;" parent="1" vertex="1">
          <mxGeometry x="487.5" y="220" width="90" height="40" as="geometry" />
        </mxCell>
        <mxCell id="7weu3szG185yvTid6uPm-52" value="contém" style="rhombus;whiteSpace=wrap;html=1;" parent="1" vertex="1">
          <mxGeometry x="492.5" y="300" width="80" height="50" as="geometry" />
        </mxCell>
        <mxCell id="7weu3szG185yvTid6uPm-53" value="" style="endArrow=none;html=1;rounded=0;entryX=0.5;entryY=1;entryDx=0;entryDy=0;exitX=0.5;exitY=0;exitDx=0;exitDy=0;" parent="1" source="7weu3szG185yvTid6uPm-52" target="7weu3szG185yvTid6uPm-51" edge="1">
          <mxGeometry width="50" height="50" relative="1" as="geometry">
            <mxPoint x="471.25" y="330" as="sourcePoint" />
            <mxPoint x="521.25" y="280" as="targetPoint" />
          </mxGeometry>
        </mxCell>
        <mxCell id="7weu3szG185yvTid6uPm-55" value="" style="endArrow=none;html=1;rounded=0;exitX=0.5;exitY=0;exitDx=0;exitDy=0;entryX=0;entryY=0;entryDx=0;entryDy=0;" parent="1" target="7weu3szG185yvTid6uPm-11" edge="1">
          <mxGeometry width="50" height="50" relative="1" as="geometry">
            <mxPoint x="530" y="390" as="sourcePoint" />
            <mxPoint x="530" y="360" as="targetPoint" />
          </mxGeometry>
        </mxCell>
        <mxCell id="7weu3szG185yvTid6uPm-56" value="1" style="text;html=1;align=center;verticalAlign=middle;whiteSpace=wrap;rounded=0;" parent="1" vertex="1">
          <mxGeometry x="521.25" y="270" width="60" height="30" as="geometry" />
        </mxCell>
        <mxCell id="7weu3szG185yvTid6uPm-59" value="N" style="text;html=1;align=center;verticalAlign=middle;whiteSpace=wrap;rounded=0;" parent="1" vertex="1">
          <mxGeometry x="410" y="380" width="60" height="30" as="geometry" />
        </mxCell>
        <mxCell id="7weu3szG185yvTid6uPm-60" value="" style="endArrow=none;html=1;rounded=0;" parent="1" edge="1">
          <mxGeometry width="50" height="50" relative="1" as="geometry">
            <mxPoint x="300" y="754" as="sourcePoint" />
            <mxPoint x="340" y="754" as="targetPoint" />
          </mxGeometry>
        </mxCell>
        <mxCell id="7weu3szG185yvTid6uPm-62" value="" style="endArrow=none;html=1;rounded=0;exitX=0.951;exitY=0.443;exitDx=0;exitDy=0;exitPerimeter=0;" parent="1" source="7weu3szG185yvTid6uPm-70" edge="1">
          <mxGeometry width="50" height="50" relative="1" as="geometry">
            <mxPoint x="430" y="720" as="sourcePoint" />
            <mxPoint x="480" y="757" as="targetPoint" />
          </mxGeometry>
        </mxCell>
        <mxCell id="7weu3szG185yvTid6uPm-64" value="" style="endArrow=none;html=1;rounded=0;exitX=1;exitY=0.5;exitDx=0;exitDy=0;" parent="1" edge="1">
          <mxGeometry width="50" height="50" relative="1" as="geometry">
            <mxPoint x="387.5" y="420" as="sourcePoint" />
            <mxPoint x="487.5" y="420" as="targetPoint" />
          </mxGeometry>
        </mxCell>
        <mxCell id="7weu3szG185yvTid6uPm-67" value="" style="endArrow=none;html=1;rounded=0;entryX=0.5;entryY=1;entryDx=0;entryDy=0;exitX=0.5;exitY=0;exitDx=0;exitDy=0;" parent="1" edge="1">
          <mxGeometry width="50" height="50" relative="1" as="geometry">
            <mxPoint x="534.9" y="390" as="sourcePoint" />
            <mxPoint x="534.9" y="350" as="targetPoint" />
          </mxGeometry>
        </mxCell>
        <mxCell id="7weu3szG185yvTid6uPm-71" value="" style="endArrow=none;html=1;rounded=0;entryX=0.5;entryY=1;entryDx=0;entryDy=0;exitX=0.5;exitY=0;exitDx=0;exitDy=0;" parent="1" edge="1">
          <mxGeometry width="50" height="50" relative="1" as="geometry">
            <mxPoint x="540" y="480" as="sourcePoint" />
            <mxPoint x="540" y="430" as="targetPoint" />
          </mxGeometry>
        </mxCell>
        <mxCell id="7weu3szG185yvTid6uPm-72" value="&lt;u&gt;número&lt;/u&gt;" style="ellipse;whiteSpace=wrap;html=1;" parent="1" vertex="1">
          <mxGeometry x="640" y="240" width="80" height="50" as="geometry" />
        </mxCell>
        <mxCell id="7weu3szG185yvTid6uPm-73" value="data" style="ellipse;whiteSpace=wrap;html=1;" parent="1" vertex="1">
          <mxGeometry x="640" y="320" width="80" height="50" as="geometry" />
        </mxCell>
        <mxCell id="7weu3szG185yvTid6uPm-74" value="" style="endArrow=none;html=1;rounded=0;entryX=0;entryY=0.5;entryDx=0;entryDy=0;" parent="1" target="7weu3szG185yvTid6uPm-72" edge="1">
          <mxGeometry width="50" height="50" relative="1" as="geometry">
            <mxPoint x="560" y="390" as="sourcePoint" />
            <mxPoint x="610" y="340" as="targetPoint" />
          </mxGeometry>
        </mxCell>
        <mxCell id="7weu3szG185yvTid6uPm-75" value="" style="endArrow=none;html=1;rounded=0;entryX=0;entryY=0.5;entryDx=0;entryDy=0;" parent="1" target="7weu3szG185yvTid6uPm-73" edge="1">
          <mxGeometry width="50" height="50" relative="1" as="geometry">
            <mxPoint x="560" y="390" as="sourcePoint" />
            <mxPoint x="610" y="340" as="targetPoint" />
          </mxGeometry>
        </mxCell>
        <mxCell id="7weu3szG185yvTid6uPm-76" value="especialidade" style="ellipse;whiteSpace=wrap;html=1;" parent="1" vertex="1">
          <mxGeometry x="228.44" y="280" width="80" height="50" as="geometry" />
        </mxCell>
        <mxCell id="7weu3szG185yvTid6uPm-77" value="nome" style="ellipse;whiteSpace=wrap;html=1;" parent="1" vertex="1">
          <mxGeometry x="140" y="280" width="80" height="50" as="geometry" />
        </mxCell>
        <mxCell id="7weu3szG185yvTid6uPm-78" value="&lt;u&gt;número&lt;/u&gt;" style="ellipse;whiteSpace=wrap;html=1;" parent="1" vertex="1">
          <mxGeometry x="50" y="280" width="80" height="50" as="geometry" />
        </mxCell>
        <mxCell id="7weu3szG185yvTid6uPm-80" value="" style="endArrow=none;html=1;rounded=0;entryX=0.5;entryY=1;entryDx=0;entryDy=0;" parent="1" target="7weu3szG185yvTid6uPm-78" edge="1">
          <mxGeometry width="50" height="50" relative="1" as="geometry">
            <mxPoint x="142.81" y="390" as="sourcePoint" />
            <mxPoint x="192.81" y="340" as="targetPoint" />
          </mxGeometry>
        </mxCell>
        <mxCell id="7weu3szG185yvTid6uPm-81" value="" style="endArrow=none;html=1;rounded=0;" parent="1" target="7weu3szG185yvTid6uPm-77" edge="1">
          <mxGeometry width="50" height="50" relative="1" as="geometry">
            <mxPoint x="179.97" y="390" as="sourcePoint" />
            <mxPoint x="179.57000000000002" y="335.04999999999995" as="targetPoint" />
          </mxGeometry>
        </mxCell>
        <mxCell id="7weu3szG185yvTid6uPm-82" value="" style="endArrow=none;html=1;rounded=0;entryX=0.395;entryY=1.063;entryDx=0;entryDy=0;entryPerimeter=0;" parent="1" target="7weu3szG185yvTid6uPm-76" edge="1">
          <mxGeometry width="50" height="50" relative="1" as="geometry">
            <mxPoint x="192.81" y="390" as="sourcePoint" />
            <mxPoint x="242.81" y="340" as="targetPoint" />
          </mxGeometry>
        </mxCell>
        <mxCell id="7weu3szG185yvTid6uPm-84" value="endereço" style="ellipse;whiteSpace=wrap;html=1;" parent="1" vertex="1">
          <mxGeometry x="650" y="110" width="80" height="50" as="geometry" />
        </mxCell>
        <mxCell id="7weu3szG185yvTid6uPm-85" value="data de&amp;nbsp;&lt;br&gt;nascimento" style="ellipse;whiteSpace=wrap;html=1;" parent="1" vertex="1">
          <mxGeometry x="550" y="110" width="80" height="50" as="geometry" />
        </mxCell>
        <mxCell id="7weu3szG185yvTid6uPm-86" value="nome" style="ellipse;whiteSpace=wrap;html=1;" parent="1" vertex="1">
          <mxGeometry x="460" y="110" width="80" height="50" as="geometry" />
        </mxCell>
        <mxCell id="7weu3szG185yvTid6uPm-87" value="&lt;u&gt;número&lt;/u&gt;" style="ellipse;whiteSpace=wrap;html=1;" parent="1" vertex="1">
          <mxGeometry x="374" y="110" width="80" height="50" as="geometry" />
        </mxCell>
        <mxCell id="7weu3szG185yvTid6uPm-88" value="" style="endArrow=none;html=1;rounded=0;entryX=0.5;entryY=1;entryDx=0;entryDy=0;" parent="1" target="7weu3szG185yvTid6uPm-87" edge="1">
          <mxGeometry width="50" height="50" relative="1" as="geometry">
            <mxPoint x="500" y="220" as="sourcePoint" />
            <mxPoint x="550" y="170" as="targetPoint" />
          </mxGeometry>
        </mxCell>
        <mxCell id="7weu3szG185yvTid6uPm-89" value="" style="endArrow=none;html=1;rounded=0;entryX=0.5;entryY=1;entryDx=0;entryDy=0;exitX=0.427;exitY=0.007;exitDx=0;exitDy=0;exitPerimeter=0;" parent="1" source="7weu3szG185yvTid6uPm-51" target="7weu3szG185yvTid6uPm-86" edge="1">
          <mxGeometry width="50" height="50" relative="1" as="geometry">
            <mxPoint x="520" y="210" as="sourcePoint" />
            <mxPoint x="480" y="100" as="targetPoint" />
          </mxGeometry>
        </mxCell>
        <mxCell id="7weu3szG185yvTid6uPm-91" value="" style="endArrow=none;html=1;rounded=0;entryX=0.5;entryY=1;entryDx=0;entryDy=0;" parent="1" target="7weu3szG185yvTid6uPm-85" edge="1">
          <mxGeometry width="50" height="50" relative="1" as="geometry">
            <mxPoint x="540" y="220" as="sourcePoint" />
            <mxPoint x="590" y="170" as="targetPoint" />
          </mxGeometry>
        </mxCell>
        <mxCell id="7weu3szG185yvTid6uPm-92" value="" style="endArrow=none;html=1;rounded=0;entryX=0.5;entryY=1;entryDx=0;entryDy=0;" parent="1" target="7weu3szG185yvTid6uPm-84" edge="1">
          <mxGeometry width="50" height="50" relative="1" as="geometry">
            <mxPoint x="565" y="220" as="sourcePoint" />
            <mxPoint x="615" y="90" as="targetPoint" />
          </mxGeometry>
        </mxCell>
        <mxCell id="7weu3szG185yvTid6uPm-95" value="nome&lt;br&gt;comercial" style="ellipse;whiteSpace=wrap;html=1;" parent="1" vertex="1">
          <mxGeometry x="450" y="810" width="80" height="50" as="geometry" />
        </mxCell>
        <mxCell id="7weu3szG185yvTid6uPm-96" value="fórmula" style="ellipse;whiteSpace=wrap;html=1;" parent="1" vertex="1">
          <mxGeometry x="550" y="810" width="80" height="50" as="geometry" />
        </mxCell>
        <mxCell id="7weu3szG185yvTid6uPm-97" value="" style="endArrow=none;html=1;rounded=0;entryX=0.336;entryY=1.008;entryDx=0;entryDy=0;entryPerimeter=0;" parent="1" edge="1" target="7weu3szG185yvTid6uPm-115">
          <mxGeometry width="50" height="50" relative="1" as="geometry">
            <mxPoint x="500" y="810" as="sourcePoint" />
            <mxPoint x="520" y="790" as="targetPoint" />
          </mxGeometry>
        </mxCell>
        <mxCell id="7weu3szG185yvTid6uPm-98" value="" style="endArrow=none;html=1;rounded=0;exitX=0.257;exitY=0.019;exitDx=0;exitDy=0;exitPerimeter=0;entryX=0.671;entryY=1.01;entryDx=0;entryDy=0;entryPerimeter=0;" parent="1" source="7weu3szG185yvTid6uPm-96" edge="1" target="7weu3szG185yvTid6uPm-115">
          <mxGeometry width="50" height="50" relative="1" as="geometry">
            <mxPoint x="560" y="800" as="sourcePoint" />
            <mxPoint x="550" y="790" as="targetPoint" />
          </mxGeometry>
        </mxCell>
        <mxCell id="7weu3szG185yvTid6uPm-99" value="telefone" style="ellipse;whiteSpace=wrap;html=1;" parent="1" vertex="1">
          <mxGeometry x="342.5" y="830" width="80" height="50" as="geometry" />
        </mxCell>
        <mxCell id="7weu3szG185yvTid6uPm-100" value="Endereço" style="ellipse;whiteSpace=wrap;html=1;" parent="1" vertex="1">
          <mxGeometry x="257.5" y="830" width="80" height="50" as="geometry" />
        </mxCell>
        <mxCell id="7weu3szG185yvTid6uPm-101" value="nome" style="ellipse;whiteSpace=wrap;html=1;" parent="1" vertex="1">
          <mxGeometry x="170" y="830" width="80" height="50" as="geometry" />
        </mxCell>
        <mxCell id="7weu3szG185yvTid6uPm-102" value="número" style="ellipse;whiteSpace=wrap;html=1;" parent="1" vertex="1">
          <mxGeometry x="80" y="830" width="80" height="50" as="geometry" />
        </mxCell>
        <mxCell id="7weu3szG185yvTid6uPm-103" value="" style="endArrow=none;html=1;rounded=0;exitX=0.647;exitY=0.014;exitDx=0;exitDy=0;exitPerimeter=0;entryX=0.195;entryY=1.016;entryDx=0;entryDy=0;entryPerimeter=0;" parent="1" source="7weu3szG185yvTid6uPm-102" edge="1" target="7weu3szG185yvTid6uPm-26">
          <mxGeometry width="50" height="50" relative="1" as="geometry">
            <mxPoint x="160" y="835" as="sourcePoint" />
            <mxPoint x="210" y="785" as="targetPoint" />
          </mxGeometry>
        </mxCell>
        <mxCell id="7weu3szG185yvTid6uPm-104" value="" style="endArrow=none;html=1;rounded=0;exitX=0.5;exitY=0;exitDx=0;exitDy=0;entryX=0.328;entryY=0.999;entryDx=0;entryDy=0;entryPerimeter=0;" parent="1" source="7weu3szG185yvTid6uPm-101" edge="1" target="7weu3szG185yvTid6uPm-26">
          <mxGeometry width="50" height="50" relative="1" as="geometry">
            <mxPoint x="178.44" y="835" as="sourcePoint" />
            <mxPoint x="228.44" y="785" as="targetPoint" />
          </mxGeometry>
        </mxCell>
        <mxCell id="7weu3szG185yvTid6uPm-105" value="" style="endArrow=none;html=1;rounded=0;exitX=0.312;exitY=-0.021;exitDx=0;exitDy=0;exitPerimeter=0;entryX=0.588;entryY=1.015;entryDx=0;entryDy=0;entryPerimeter=0;" parent="1" source="7weu3szG185yvTid6uPm-100" target="7weu3szG185yvTid6uPm-26" edge="1">
          <mxGeometry width="50" height="50" relative="1" as="geometry">
            <mxPoint x="238.44" y="830" as="sourcePoint" />
            <mxPoint x="260" y="790" as="targetPoint" />
          </mxGeometry>
        </mxCell>
        <mxCell id="7weu3szG185yvTid6uPm-106" value="" style="endArrow=none;html=1;rounded=0;entryX=0.75;entryY=1;entryDx=0;entryDy=0;exitX=0.423;exitY=-0.033;exitDx=0;exitDy=0;exitPerimeter=0;" parent="1" source="7weu3szG185yvTid6uPm-99" target="7weu3szG185yvTid6uPm-26" edge="1">
          <mxGeometry width="50" height="50" relative="1" as="geometry">
            <mxPoint x="350" y="820" as="sourcePoint" />
            <mxPoint x="279.00408000000004" y="786.0500000000001" as="targetPoint" />
          </mxGeometry>
        </mxCell>
        <mxCell id="7weu3szG185yvTid6uPm-107" value="&lt;u&gt;nif&lt;/u&gt;" style="ellipse;whiteSpace=wrap;html=1;" parent="1" vertex="1">
          <mxGeometry x="370" y="470" width="80" height="50" as="geometry" />
        </mxCell>
        <mxCell id="7weu3szG185yvTid6uPm-108" value="nome" style="ellipse;whiteSpace=wrap;html=1;" parent="1" vertex="1">
          <mxGeometry x="370" y="530" width="80" height="50" as="geometry" />
        </mxCell>
        <mxCell id="7weu3szG185yvTid6uPm-109" value="endereço" style="ellipse;whiteSpace=wrap;html=1;" parent="1" vertex="1">
          <mxGeometry x="370" y="590" width="80" height="50" as="geometry" />
        </mxCell>
        <mxCell id="7weu3szG185yvTid6uPm-110" value="telefone" style="ellipse;whiteSpace=wrap;html=1;" parent="1" vertex="1">
          <mxGeometry x="370" y="650" width="80" height="50" as="geometry" />
        </mxCell>
        <mxCell id="7weu3szG185yvTid6uPm-111" value="" style="endArrow=none;html=1;rounded=0;exitX=1;exitY=0.5;exitDx=0;exitDy=0;entryX=0.25;entryY=0;entryDx=0;entryDy=0;" parent="1" source="7weu3szG185yvTid6uPm-107" target="7weu3szG185yvTid6uPm-13" edge="1">
          <mxGeometry width="50" height="50" relative="1" as="geometry">
            <mxPoint x="480" y="490" as="sourcePoint" />
            <mxPoint x="500" y="450" as="targetPoint" />
          </mxGeometry>
        </mxCell>
        <mxCell id="7weu3szG185yvTid6uPm-112" value="" style="endArrow=none;html=1;rounded=0;entryX=0.25;entryY=1;entryDx=0;entryDy=0;exitX=1;exitY=0.5;exitDx=0;exitDy=0;" parent="1" source="7weu3szG185yvTid6uPm-110" target="7weu3szG185yvTid6uPm-13" edge="1">
          <mxGeometry width="50" height="50" relative="1" as="geometry">
            <mxPoint x="470" y="580" as="sourcePoint" />
            <mxPoint x="522" y="580" as="targetPoint" />
          </mxGeometry>
        </mxCell>
        <mxCell id="7weu3szG185yvTid6uPm-113" value="" style="endArrow=none;html=1;rounded=0;entryX=0;entryY=0.75;entryDx=0;entryDy=0;exitX=1;exitY=0.5;exitDx=0;exitDy=0;" parent="1" source="7weu3szG185yvTid6uPm-109" target="7weu3szG185yvTid6uPm-13" edge="1">
          <mxGeometry width="50" height="50" relative="1" as="geometry">
            <mxPoint x="460" y="685" as="sourcePoint" />
            <mxPoint x="522" y="620" as="targetPoint" />
          </mxGeometry>
        </mxCell>
        <mxCell id="7weu3szG185yvTid6uPm-114" value="" style="endArrow=none;html=1;rounded=0;entryX=0;entryY=0.5;entryDx=0;entryDy=0;exitX=1;exitY=0.5;exitDx=0;exitDy=0;" parent="1" source="7weu3szG185yvTid6uPm-108" target="7weu3szG185yvTid6uPm-13" edge="1">
          <mxGeometry width="50" height="50" relative="1" as="geometry">
            <mxPoint x="460" y="625" as="sourcePoint" />
            <mxPoint x="499" y="610" as="targetPoint" />
          </mxGeometry>
        </mxCell>
      </root>
    </mxGraphModel>
  </diagram>
</mxfile>
